<?xml version="1.0" encoding="utf-8"?>
<!-- Generator: Adobe Illustrator 21.0.2, SVG Export Plug-In . SVG Version: 6.00 Build 0)  -->
<svg version="1.1" id="Layer_1" xmlns="http://www.w3.org/2000/svg" xmlns:xlink="http://www.w3.org/1999/xlink" x="0px" y="0px"
	 viewBox="0 0 481 458" style="enable-background:new 0 0 481 458;" xml:space="preserve">
<style type="text/css">
	.st0{fill:#3498DB;}
	.st1{fill:#FFFFFF;}
</style>
<title>media-item</title>
<rect class="st0" width="481" height="458"/>
<g>
	<g>
		<circle class="st1" cx="94.9" cy="113" r="4.8"/>
		<circle class="st1" cx="125.4" cy="113" r="4.8"/>
		<circle class="st1" cx="110.1" cy="113" r="4.8"/>
	</g>
	<g>
		<path class="st1" d="M71.4,92.2v34.7v5.6v33.9v5.6v193.9h236.8h69.7H407V171.9v-5.6v-33.9v-5.6V92.2H71.4z M313.7,360.3v-8.2h58.9
			v8.6h-58.9V360.3z M401.4,360.3h-23.5v-14.2h-69.7v14.2H77V171.9h324.4V360.3z M401.4,166.4H77v-33.9h324.4V166.4z M77,126.8V97.7
			h324.4v29.1H77z"/>
		<rect x="96.7" y="191" class="st1" width="164.4" height="5.6"/>
		<rect x="96.7" y="205.5" class="st1" width="110.4" height="5.6"/>
		<rect x="96" y="234.2" class="st1" width="125.3" height="5.6"/>
		<rect x="96" y="257.3" class="st1" width="171.5" height="5.6"/>
		<rect x="96" y="268.9" class="st1" width="177.5" height="5.6"/>
		<rect x="96" y="280.5" class="st1" width="106.3" height="5.6"/>
		<rect x="96" y="245.8" class="st1" width="185.7" height="5.6"/>
		<path class="st1" d="M328.3,191h-20.1v20.1h20.1V191z M322.7,205.5h-8.9v-8.9h8.9V205.5z"/>
		<path class="st1" d="M377.9,191h-20.1v20.1h20.1V191z M372.7,205.5h-8.9v-8.9h8.9V205.5z"/>
		<path class="st1" d="M352.1,191h-19.8v20.1h20.1V191H352.1z M346.6,205.5h-8.9v-8.9h8.9V205.5z"/>
		<path class="st1" d="M377.9,220.4h-69.7v35.1h69.7V220.4z M372.7,249.9h-58.9V226h58.9V249.9z"/>
		<rect x="308.1" y="260.3" class="st1" width="57.1" height="5.6"/>
		<rect x="308.1" y="269.6" class="st1" width="69.7" height="5.6"/>
		<path class="st1" d="M377.9,283.4h-69.7v35.1h69.7V283.4z M372.7,312.9h-58.9V289h58.9V312.9z"/>
		<rect x="308.1" y="323.3" class="st1" width="57.1" height="5.6"/>
		<rect x="308.1" y="332.7" class="st1" width="69.7" height="5.6"/>
		<path class="st1" d="M96.7,347.2h49.2V298H96.7V347.2z M102.3,303.6h38.4V342h-38.4V303.6z"/>
		<path class="st1" d="M156,347.2h49.6V298H156V347.2z M161.6,303.6H200V342h-38.4V303.6z"/>
		<path class="st1" d="M215.7,347.2h49.2V298h-49.2V347.2z M221.3,303.6h38.4V342h-38.4V303.6z"/>
		<path class="st1" d="M136.6,158.9v-16.4H88.1v16.4H136.6z M93.7,148.1H131v5.2H93.7V148.1z"/>
		<rect x="340.2" y="147.7" class="st1" width="38" height="5.6"/>
		<rect x="298.8" y="147.7" class="st1" width="38" height="5.6"/>
		<rect x="257.4" y="147.7" class="st1" width="38" height="5.6"/>
		<rect x="216.4" y="147.7" class="st1" width="38" height="5.6"/>
	</g>
</g>
</svg>
