<svg xmlns="http://www.w3.org/2000/svg" viewBox="0 0 520.58 834"><defs><style>.cls-1{fill:#f39c12;}.cls-2{fill:#fff;}</style></defs><title>media-item2-lg</title><g id="Layer_2" data-name="Layer 2"><g id="Layer_1-2" data-name="Layer 1"><rect class="cls-1" width="520.58" height="834"/><path class="cls-2" d="M370.94,263.18a8.54,8.54,0,0,0-.93.13H148.59a8.54,8.54,0,0,0-6.27,3.47L74,360.75a8.54,8.54,0,0,0,.67,10.81L253.76,567.89l.13.13q.25.28.53.53a8.57,8.57,0,0,0,1.07.93l.26.13h.13q.26.21.53.4h.13q.33.15.67.26l.13.13.67.13q.39.15.8.26h1.86a8.46,8.46,0,0,0,.93,0l.67-.13.13-.13q.4,0,.8-.13l.26-.13a8.56,8.56,0,0,0,1.2-.53l.13-.13q.27-.19.53-.4l.13-.13q.27-.19.53-.4l.13-.13a8.53,8.53,0,0,0,1.07-1.2l178.71-195.8a8.54,8.54,0,0,0,.67-10.81l-68.33-94a8.54,8.54,0,0,0-7.34-3.6ZM161.4,280.4h80.75l-55.79,68.47Zm117.05,0h80.75l-25,68.47Zm-18.15,4.94,58.86,71.94H201.44Zm-113.58,4.4,24.56,67.53H97.73Zm227.16,0,49,67.53H349.32ZM100.27,374.36h77.28l57.92,148-135.2-148Zm95.83,0H324.49L260.3,538.92,196.1,374.36Zm146.95,0h77.28l-135.2,148,57.92-148Z"/></g></g></svg>