<?xml version="1.0" encoding="utf-8"?>
<!-- Generator: Adobe Illustrator 21.0.2, SVG Export Plug-In . SVG Version: 6.00 Build 0)  -->
<svg version="1.1" id="Layer_1" xmlns="http://www.w3.org/2000/svg" xmlns:xlink="http://www.w3.org/1999/xlink" x="0px" y="0px"
	 viewBox="0 0 481 458" style="enable-background:new 0 0 481 458;" xml:space="preserve">
<style type="text/css">
	.st0{fill:#F39C12;}
	.st1{fill:#FFFFFF;}
</style>
<title>media-item</title>
<rect class="st0" width="481" height="458"/>
<g transform="translate(0,-952.36218)">
	<path class="st1" d="M351.2,1027.5c-0.3,0-0.6,0.1-0.9,0.1H130.5h-0.9c0,0-0.1,0-0.1,0c-0.2,0-0.4,0-0.7,0
		c-2.5,0.2-4.8,1.4-6.3,3.5l-68.3,94c-2.4,3.3-2.1,7.8,0.7,10.8L234,1332.2l0.1,0.1c0.2,0.2,0.3,0.4,0.5,0.5
		c0.3,0.3,0.7,0.7,1.1,0.9c0.1,0,0.2,0.1,0.3,0.1c0,0,0.1,0,0.1,0c0.2,0.1,0.4,0.3,0.5,0.4c0,0,0.1,0,0.1,0c0.2,0.1,0.4,0.2,0.7,0.3
		c0,0,0.1,0.1,0.1,0.1c0.2,0.1,0.4,0.1,0.7,0.1c0.3,0.1,0.5,0.2,0.8,0.3c0,0,0.1,0,0.1,0c0,0,0.1,0,0.1,0c0.2,0,0.4,0,0.7,0
		c0,0,0.1,0,0.1,0c0.2,0,0.4,0,0.7,0c0,0,0.1,0,0.1,0c0.3,0,0.6,0,0.9,0c0.2,0,0.4-0.1,0.7-0.1c0,0,0.1-0.1,0.1-0.1
		c0.3,0,0.5-0.1,0.8-0.1c0.1,0,0.2-0.1,0.3-0.1c0.4-0.1,0.8-0.3,1.2-0.5c0,0,0.1-0.1,0.1-0.1c0.2-0.1,0.4-0.3,0.5-0.4
		c0,0,0.1-0.1,0.1-0.1c0.2-0.1,0.4-0.3,0.5-0.4c0,0,0.1-0.1,0.1-0.1c0.4-0.4,0.8-0.8,1.1-1.2l178.7-195.8c2.8-3,3-7.5,0.7-10.8
		l-68.3-94C356.8,1028.8,354,1027.4,351.2,1027.5L351.2,1027.5z M141.6,1044.8h80.7l-55.8,68.5L141.6,1044.8z M258.7,1044.8h80.7
		l-25,68.5C314.4,1113.2,258.7,1044.8,258.7,1044.8z M240.5,1049.7l58.9,71.9H181.6L240.5,1049.7z M126.9,1054.1l24.6,67.5H77.9
		L126.9,1054.1z M354.1,1054.1l49,67.5h-73.5C329.5,1121.6,354.1,1054.1,354.1,1054.1z M80.5,1138.7h77.3l57.9,148L80.5,1138.7
		L80.5,1138.7z M176.3,1138.7h128.4l-64.2,164.6L176.3,1138.7L176.3,1138.7z M323.3,1138.7h77.3l-135.2,148L323.3,1138.7
		L323.3,1138.7z"/>
</g>
</svg>
