<?xml version="1.0" encoding="utf-8"?>
<!-- Generator: Adobe Illustrator 21.0.2, SVG Export Plug-In . SVG Version: 6.00 Build 0)  -->
<svg version="1.1" id="Layer_1" xmlns="http://www.w3.org/2000/svg" xmlns:xlink="http://www.w3.org/1999/xlink" x="0px" y="0px"
	 viewBox="0 0 481 458" style="enable-background:new 0 0 481 458;" xml:space="preserve">
<style type="text/css">
	.st0{fill:#3498DB;}
	.st1{fill:#FCFCFC;}
</style>
<title>media-item</title>
<rect class="st0" width="481" height="458"/>
<path class="st1" d="M340.8,194.9H168.2v-28.8c0-39.8,32.5-71.8,71.8-71.8c39.8,0,71.8,32.5,71.8,71.8c0,4.5,3.7,8.1,8.1,8.1
	s8.1-3.7,8.1-8.1c0-48.7-39.4-88.1-88.1-88.1S152,117.4,152,166.1v28.8h-12.2c-4.5,0-8.1,3.7-8.1,8.1v168.9c0,4.5,3.7,8.1,8.1,8.1
	h201.3c4.5,0,8.1-3.7,8.1-8.1V203C348.9,198.6,345.2,194.9,340.8,194.9z M332.6,363.4H147.5V211.1h185.1V363.4z"/>
<path class="st1" d="M227.5,300v25.2c0,6.9,5.7,12.6,12.6,12.6c6.9,0,12.6-5.7,12.6-12.6V300c12.6-4.9,21.5-17,21.5-31.3
	c0-18.7-15-33.7-33.7-33.7s-33.7,15-33.7,33.7C206.4,283,215.3,295.2,227.5,300z M240.1,251.3c9.7,0,17.5,7.7,17.5,17.5
	s-7.7,17.5-17.5,17.5c-9.7,0-17.5-7.7-17.5-17.5S230.4,251.3,240.1,251.3z"/>
</svg>
